<mxfile host="app.diagrams.net" modified="2024-03-13T08:00:51.198Z" agent="Mozilla/5.0 (Macintosh; Intel Mac OS X 10_15_7) AppleWebKit/537.36 (KHTML, like Gecko) Chrome/122.0.0.0 Safari/537.36" etag="41EUvxf94rjjq1R5rdLX" version="24.0.3" type="github">
  <diagram name="第 1 页" id="Bj6_he6a6NiB_tpM2p7G">
    <mxGraphModel dx="1026" dy="663" grid="1" gridSize="10" guides="1" tooltips="1" connect="1" arrows="1" fold="1" page="1" pageScale="1" pageWidth="827" pageHeight="1169" math="0" shadow="0">
      <root>
        <mxCell id="0" />
        <mxCell id="1" parent="0" />
        <mxCell id="ZR2oZnLHFTLPa50n_OUC-3" value="" style="edgeStyle=orthogonalEdgeStyle;rounded=0;orthogonalLoop=1;jettySize=auto;html=1;" edge="1" parent="1" source="ZR2oZnLHFTLPa50n_OUC-1" target="ZR2oZnLHFTLPa50n_OUC-2">
          <mxGeometry relative="1" as="geometry" />
        </mxCell>
        <mxCell id="ZR2oZnLHFTLPa50n_OUC-1" value="" style="strokeWidth=2;html=1;shape=mxgraph.flowchart.start_2;whiteSpace=wrap;" vertex="1" parent="1">
          <mxGeometry x="340" y="20" width="50" height="50" as="geometry" />
        </mxCell>
        <mxCell id="ZR2oZnLHFTLPa50n_OUC-5" value="" style="edgeStyle=orthogonalEdgeStyle;rounded=0;orthogonalLoop=1;jettySize=auto;html=1;" edge="1" parent="1" source="ZR2oZnLHFTLPa50n_OUC-2" target="ZR2oZnLHFTLPa50n_OUC-4">
          <mxGeometry relative="1" as="geometry" />
        </mxCell>
        <mxCell id="ZR2oZnLHFTLPa50n_OUC-2" value="从其他平台复制的链接到蜜源app" style="whiteSpace=wrap;html=1;strokeWidth=2;" vertex="1" parent="1">
          <mxGeometry x="305" y="110" width="120" height="60" as="geometry" />
        </mxCell>
        <mxCell id="ZR2oZnLHFTLPa50n_OUC-4" value="请求超级搜索接口" style="whiteSpace=wrap;html=1;strokeWidth=2;" vertex="1" parent="1">
          <mxGeometry x="305" y="220" width="120" height="60" as="geometry" />
        </mxCell>
      </root>
    </mxGraphModel>
  </diagram>
</mxfile>
